# xmcd CD database file
#
# Track frame offsets:
#	150
#	45856
#	119655
#	175603
#	265802
#
# Disc length: 4260 seconds
#
# Revision: 0
# Processed by: cddbd v1.5PL3 Copyright (c) Steve Scherf et al.
# Submitted via: CDex 1.50
#
DISCID=3810a205
DTITLE=Pat Metheny Trio - Tokyo, 01/28/92
DYEAR=1992
DGENRE=Jazz
TTITLE0=H and H
TTITLE1=Question and Answer
TTITLE2=Change Of Heart
TTITLE3=Law Years
TTITLE4=Farmer's Trust
EXTD=YEAR: 1992
EXTT0=
EXTT1=
EXTT2=
EXTT3=
EXTT4=
PLAYORDER=
